# xmcd
#
# Track frame offsets: 
#        150
#        14670
#        31352
#        48365
#
# Disc length: 900 seconds
#
# Revision: 0
# Processed by: cddbd v1.5PL3 Copyright (c) Steve Scherf et al.
# Submitted via: ExactAudioCopy v0.90b4
#
DISCID=2c038204
DTITLE=PENPALS - Tell Me Why
DYEAR=1900
DGENRE=Rock
TTITLE0=TELL ME WHY
TTITLE1=underground
TTITLE2=Nevermind
TTITLE3=super power
EXTD=
EXTT0=
EXTT1=
EXTT2=
EXTT3=
PLAYORDER=
